HIERARCHY
ROOT Hips
{
	OFFSET 0.00000 0.00000 0.00000
	CHANNELS 6 Xposition Yposition Zposition Zrotation Yrotation Xrotation 
	JOINT LHipJoint
	{
		OFFSET 0 0 0
		CHANNELS 3 Zrotation Yrotation Xrotation
		JOINT LeftHip
		{
			OFFSET 1.84395 -1.68683 0.74144
			CHANNELS 3 Zrotation Yrotation Xrotation
			JOINT LeftKnee
			{
				OFFSET 2.27037 -6.23779 0.00000
				CHANNELS 3 Zrotation Yrotation Xrotation
				JOINT LeftAnkle
				{
					OFFSET 2.56918 -7.05877 0.00000
					CHANNELS 3 Zrotation Yrotation Xrotation
					JOINT LeftToe
					{
						OFFSET 0.22276 -0.61202 1.71784
						CHANNELS 3 Zrotation Yrotation Xrotation
						End Site
						{
							OFFSET 0.00000 -0.00000 0.91613
						}
					}
				}
			}
		}
	}
	JOINT RHipJoint
	{
		OFFSET 0 0 0
		CHANNELS 3 Zrotation Yrotation Xrotation
		JOINT RightHip
		{
			OFFSET -1.76833 -1.68684 0.74144
			CHANNELS 3 Zrotation Yrotation Xrotation
			JOINT RightKnee
			{
				OFFSET -2.49360 -6.85110 0.00000
				CHANNELS 3 Zrotation Yrotation Xrotation
				JOINT RightAnkle
				{
					OFFSET -2.55538 -7.02085 0.00000
					CHANNELS 3 Zrotation Yrotation Xrotation
					JOINT RightToe
					{
						OFFSET -0.21516 -0.59115 1.68050
						CHANNELS 3 Zrotation Yrotation Xrotation
						End Site
						{
							OFFSET -0.00000 -0.00000 0.89604
						}
					}
				}
			}
		}
	}
	JOINT lowerback
	{
		OFFSET 0 0 0
		CHANNELS 3 Zrotation Yrotation Xrotation
		JOINT Chest
		{
			OFFSET 0.06382 1.72312 -0.19613
			CHANNELS 3 Zrotation Yrotation Xrotation
			JOINT Chest2
			{
				OFFSET -0.00055 1.73507 0.23859
				CHANNELS 3 Zrotation Yrotation Xrotation
				JOINT lowerneck
				{
					OFFSET 0 0 0
					CHANNELS 3 Zrotation Yrotation Xrotation
					JOINT Neck
					{
						OFFSET 0.03638 1.65562 0.09633
						CHANNELS 3 Zrotation Yrotation Xrotation
						JOINT Head
						{
							OFFSET 0.06388 1.62807 -0.32386
							CHANNELS 3 Zrotation Yrotation Xrotation
							End Site
							{
								OFFSET 0.00995 1.67644 -0.12021
							}
						}
					}
				}
				JOINT LeftCollar
				{
					OFFSET 0 0 0
					CHANNELS 3 Zrotation Yrotation Xrotation
					JOINT LeftShoulder
					{
						OFFSET 3.09648 1.42991 0.28122
CHANNELS 3 Zrotation Xrotation Yrotation
						JOINT LeftElbow
						{
OFFSET 0 -5.118780 -0.000000
CHANNELS 3 Zrotation Xrotation Yrotation
							JOINT LeftWrist
							{
OFFSET 0 -3.599710 0.000000
CHANNELS 3 Zrotation Xrotation Yrotation
								JOINT lhand
								{
									OFFSET 0 0 0
CHANNELS 3 Zrotation Xrotation Yrotation
									JOINT LFingers
									{
OFFSET 0 -0.628770 0.000000
CHANNELS 3 Zrotation Xrotation Yrotation
										End Site
										{
OFFSET 0 -0.506930 0.000000
										}
									}
								}
								JOINT LThumb
								{
OFFSET 0 0.000000 0.000000
CHANNELS 3 Zrotation Xrotation Yrotation
									End Site
									{
OFFSET 0 -0.514670 0.514670
									}
								}
							}
						}
					}
				}
				JOINT RightCollar
				{
					OFFSET 0 0 0
					CHANNELS 3 Zrotation Yrotation Xrotation
					JOINT RightShoulder
					{
						OFFSET -3.33565 1.14597 0.05047
CHANNELS 3 Zrotation Xrotation Yrotation
						JOINT RightElbow
						{
OFFSET 0 -5.490200 0.000000
CHANNELS 3 Zrotation Xrotation Yrotation
							JOINT RightWrist
							{
OFFSET 0 -3.206590 -0.000000
CHANNELS 3 Zrotation Xrotation Yrotation
								JOINT rhand
								{
									OFFSET 0 0 0
CHANNELS 3 Zrotation Xrotation Yrotation
									JOINT RFingers
									{
OFFSET 0 -0.691880 0.000000
CHANNELS 3 Zrotation Xrotation Yrotation
										End Site
										{
OFFSET 0 -0.557810 0.000000
										}
									}
								}
								JOINT RThumb
								{
OFFSET 0 0.000000 0.000000
CHANNELS 3 Zrotation Xrotation Yrotation
									End Site
									{
OFFSET 0 -0.566330 0.566330
									}
								}
							}
						}
					}
				}
			}
		}
	}
}
MOTION
Frames: 8
Frame Time: 0.008333333333333333
0.235550 17.489148 9.277924 -9.505747 -3.892432 11.063447 0.000000 0.000000 0.000000 -25.708030 -48.962895 37.173185 0.061877 -1.605032 -4.415326 7.995371 36.733459 -69.571567 2.365336 9.588816 27.655267 0.000000 0.000000 0.000000 27.200611 19.865210 0.078631 -0.089294 -1.927539 5.305457 -0.392287 -9.220673 -18.572843 -0.000152 0.083779 -0.230237 5.844696 1.165833 -1.999395 1.210922 1.813502 -9.219112 -2.074244 0.506439 -8.465324 -4.950025 -5.751586 -9.434520 8.988462 -10.316371 31.331043 2.868255 -4.155430 12.721745 0.000000 0.000000 0.000000 -11.414412 -26.571921 -77.618403 130.491947 -52.794898 94.218125 64.371693 -18.727359 27.100747 0.000000 0.000000 0.000000 -7.125000 0.000000 0.000000 18.857779 -17.593781 24.791171 0.000000 0.000000 0.000000 6.183727 -50.261188 69.057516 -134.125367 -51.188962 -97.081445 -30.654595 52.174730 24.277721 0.000000 0.000000 0.000000 7.125000 0.000000 0.000000 -1.425387 57.639949 0.434127
0.231405 17.489214 9.290227 -9.717568 -4.439614 11.233153 0.000000 0.000000 0.000000 -25.414632 -48.669782 36.947202 0.060327 -1.584479 -4.358655 8.089072 36.837117 -69.810082 2.404342 9.661763 27.888303 0.000000 0.000000 0.000000 27.348941 19.884487 0.003028 -0.085924 -1.890668 5.203658 -0.386992 -8.781417 -18.068634 -0.000359 0.118036 -0.324322 6.057224 0.886463 -2.082776 1.403483 1.453505 -9.370711 -1.968954 0.312256 -8.618563 -4.877879 -5.800768 -9.313860 8.977171 -10.436715 31.398656 2.836759 -4.211820 12.731042 0.000000 0.000000 0.000000 -11.537023 -26.439496 -78.020732 129.989395 -52.999630 93.817346 65.336909 -19.691422 27.005331 0.000000 0.000000 0.000000 -7.125000 0.000000 0.000000 19.402819 -18.328513 25.729570 0.000000 0.000000 0.000000 5.307228 -50.127828 68.738742 -134.772341 -50.879547 -97.584759 -30.617373 53.287489 26.726733 0.000000 0.000000 0.000000 7.125000 0.000000 0.000000 -0.679376 60.310681 0.253617
0.235032 17.488800 9.299854 -9.866915 -4.817674 11.285808 0.000000 0.000000 0.000000 -25.517474 -48.575697 37.103738 0.058949 -1.567232 -4.310971 8.109571 37.317857 -70.121512 2.409968 9.672226 27.921887 0.000000 0.000000 0.000000 27.479876 20.035435 0.003012 -0.087558 -1.908935 5.254162 -0.389472 -8.526520 -17.844144 -0.000529 0.081921 -0.224972 6.316043 0.576332 -2.046513 1.639804 1.067518 -9.527803 -1.841650 0.101403 -8.852568 -4.901279 -5.715698 -9.283050 8.817259 -10.296540 31.599432 2.803323 -4.173684 12.785262 0.000000 0.000000 0.000000 -11.709608 -26.308981 -77.953267 129.550197 -53.175308 93.466193 66.138023 -20.756666 27.204789 0.000000 0.000000 0.000000 -7.125000 0.000000 0.000000 19.766180 -19.313494 26.457586 0.000000 0.000000 0.000000 5.218721 -49.742204 69.090815 -134.834872 -50.849103 -97.633223 -30.619004 53.750769 26.865926 0.000000 0.000000 0.000000 7.125000 0.000000 0.000000 -0.634807 60.462227 0.239236
0.247144 17.487968 9.308710 -9.831229 -5.365424 11.244667 0.000000 0.000000 0.000000 -26.325140 -48.546611 37.823775 0.057079 -1.541963 -4.241283 8.482268 37.668214 -71.008400 2.420930 9.692482 27.986644 0.000000 0.000000 0.000000 27.360797 20.149272 -0.041791 -0.093824 -1.975759 5.438669 -0.394299 -8.232994 -17.612969 -0.002437 0.316664 -0.870033 6.341513 0.451361 -2.128678 1.765357 0.901174 -9.578693 -1.712152 0.020377 -8.876862 -4.870888 -5.724063 -9.518835 8.678201 -10.328590 31.998092 2.739445 -4.187759 12.996682 0.000000 0.000000 0.000000 -12.027129 -26.301078 -78.052063 129.078812 -53.360339 93.088412 66.893082 -22.211461 27.537686 0.000000 0.000000 0.000000 -7.125000 0.000000 0.000000 20.062581 -20.437594 27.111967 0.000000 0.000000 0.000000 4.810187 -49.681415 68.802039 -134.700434 -50.914386 -97.528931 -30.639818 54.191173 26.802008 0.000000 0.000000 0.000000 7.125000 0.000000 0.000000 -0.681035 60.398043 0.255663
0.267679 17.485465 9.314662 -9.767566 -5.849907 11.102684 0.000000 0.000000 0.000000 -26.671274 -48.139409 37.921896 0.055222 -1.516523 -4.171403 8.497659 37.705190 -71.057387 2.477230 9.796339 28.319693 0.000000 0.000000 0.000000 27.229746 20.141141 0.074764 -0.096584 -2.004213 5.517349 -0.386443 -8.055310 -17.347061 -0.005054 0.459356 -1.262205 6.458460 0.388207 -2.109711 1.797609 0.824810 -9.648377 -1.737824 -0.030074 -8.974011 -4.866226 -5.641436 -9.387430 8.732887 -10.244907 32.045300 2.777091 -4.150367 12.983973 0.000000 0.000000 0.000000 -12.165039 -26.091744 -78.151506 128.795512 -53.469890 92.860933 68.967349 -25.241820 27.581727 0.000000 0.000000 0.000000 -7.125000 0.000000 0.000000 21.188638 -22.556835 29.196598 0.000000 0.000000 0.000000 4.412957 -49.725084 68.207769 -134.746938 -50.891863 -97.565028 -30.716056 53.703717 26.526333 0.000000 0.000000 0.000000 7.125000 0.000000 0.000000 -0.862924 60.117216 0.318375
0.296599 17.481978 9.311504 -9.807270 -6.308035 10.973683 0.000000 0.000000 0.000000 -26.649152 -47.623577 37.761209 0.056776 -1.537708 -4.229773 8.348118 37.917191 -70.899911 2.434843 9.718504 28.069852 0.000000 0.000000 0.000000 27.169579 20.151954 0.118970 -0.101419 -2.053310 5.653044 -0.396010 -7.776641 -17.196050 -0.006603 0.525167 -1.443052 6.509109 0.409040 -2.537080 1.933981 0.813158 -9.442667 -1.620426 -0.017012 -8.495461 -5.466371 -5.867097 -9.783364 8.995879 -10.562340 32.272176 2.929096 -4.314438 13.254484 0.000000 0.000000 0.000000 -12.364985 -26.365391 -78.226611 128.878263 -53.438037 92.927395 68.467717 -24.103846 27.284389 0.000000 0.000000 0.000000 -7.125000 0.000000 0.000000 21.009391 -21.678736 28.766518 0.000000 0.000000 0.000000 4.601511 -49.926592 68.370638 -134.796571 -50.867737 -97.603550 -30.646471 53.584495 26.598730 0.000000 0.000000 0.000000 7.125000 0.000000 0.000000 -0.756316 60.178672 0.280068
0.327095 17.484555 9.305280 -9.798219 -6.813870 10.799817 0.000000 0.000000 0.000000 -26.838691 -47.136038 37.775594 0.058266 -1.557929 -4.285489 7.958534 38.683495 -70.627000 2.306239 9.476694 27.298176 0.000000 0.000000 0.000000 27.104443 20.460539 0.282909 -0.109579 -2.134676 5.878036 -0.411103 -7.597011 -17.208993 -0.006286 0.510373 -1.402352 6.590262 0.587055 -2.582202 1.812822 1.037986 -9.378581 -1.804162 0.086707 -8.377929 -4.375766 -5.773654 -9.627630 8.619751 -10.502088 31.884072 2.598142 -4.216756 12.954496 0.000000 0.000000 0.000000 -12.252083 -26.542353 -78.582431 128.889333 -53.433750 92.936310 67.681271 -23.517844 27.734931 0.000000 0.000000 0.000000 -7.125000 0.000000 0.000000 20.424922 -21.441444 27.839163 0.000000 0.000000 0.000000 4.815302 -49.911714 68.110112 -134.858748 -50.837476 -97.651786 -30.531911 53.245621 26.320531 0.000000 0.000000 0.000000 7.125000 0.000000 0.000000 -0.710321 59.847192 0.257369
0.366314 17.480340 9.294177 -9.713135 -7.155678 10.676339 0.000000 0.000000 0.000000 -27.505651 -47.098656 38.186682 0.056684 -1.535803 -4.224341 8.117831 38.880239 -71.026948 2.353556 9.566679 27.584575 0.000000 0.000000 0.000000 26.877670 20.621561 0.300404 -0.115189 -2.188211 6.026035 -0.407591 -7.531197 -17.105803 -0.005727 0.488492 -1.342296 6.462300 0.632134 -2.763624 1.890061 1.082748 -9.366436 -1.651883 0.125259 -8.255499 -4.385161 -5.685746 -9.549300 8.683385 -10.386295 31.820556 2.643279 -4.163515 12.905016 0.000000 0.000000 0.000000 -12.286848 -26.331351 -78.537673 129.046199 -53.373030 93.062297 67.852107 -23.447812 27.828804 0.000000 0.000000 0.000000 -7.125000 0.000000 0.000000 20.486462 -21.722851 27.982245 0.000000 0.000000 0.000000 4.923681 -49.774270 68.396967 -134.940378 -50.797648 -97.715016 -30.669370 53.301687 26.538463 0.000000 0.000000 0.000000 7.125000 0.000000 0.000000 -0.803348 60.118909 0.296427
